<svg id="prefix__Layer_1" xmlns="http://www.w3.org/2000/svg" width="73" height="73" viewBox="0 0 1000 1000" xml:space="preserve"><style>.prefix__st0{fill:#131313}.prefix__st1{fill:#FBFBFB}</style><path class="prefix__st0" d="M859.2 377.3l-13-35.3-19.9 7.3 13.3 35.9c.3.8.8 2.1 1.4 3.9.7 1.8 1.2 3.2 1.6 4.2.4 1.1.8 2 1.3 2.8.5.8 1 1.5 1.7 2.1 2.1 2.2 5.6 2.3 10.6.5 3.4-1.3 5.6-3.1 6.6-5.5.8-1.8.5-4.7-1-8.5l-2.6-7.4z"></path><path class="prefix__st0" d="M499.8 75.2C265.2 75.2 75 265.4 75 500c0 203.9 143.6 374.2 335.2 415.3V276.9c15.2-5.7 31.1-9.9 47.5-12.7v658.4c13.8 1.4 27.9 2.1 42.1 2.1 14.3 0 28.5-.7 42.5-2.1V264.3c16.4 2.7 32.3 7 47.5 12.7v638.3C781.1 873.9 924.5 703.7 924.5 500c0-234.6-190.2-424.8-424.7-424.8zm218.3 80.1l76 63.2-13.4 16.1-54.9-45.7-7.8 9.4 51.9 43.2-12.4 14.9-51.9-43.2-10.4 12.5 55.5 46.2-13.4 16.1-76.6-63.8 57.4-68.9zM499.5 96.8l27.2 3.1-3.9 33.4 12.1 1.4 38.7-29.3 38.9 4.5-55.3 39 51.1 51-39.6-4.6-37-37.6-11.5-1.3-3.8 32.9-27.2-3.1 10.3-89.4zM301 148.9c4.1-3.9 13.9-9.4 29.3-16.4 2.8-1.3 6.9-3 12.2-5.3 5.3-2.2 9.1-3.9 11.5-5 5.1-2.4 9.8-4 13.9-5.1 4.2-1 7.8-1.5 10.9-1.4 3.6.1 6.8 1.3 9.8 3.5 2.9 2.2 5.4 5.5 7.5 10l2.5 5.5-24.9 11.4-1.8-2.8c-1.8-2.4-4-3.5-6.7-3.3-.2 0-.7.2-1.8.5-1.9.6-3.8 1.3-5.6 2.1l-6.9 2.8-14.5 6.7-6.4 3.2c-1.8.8-3.3 1.8-4.6 3-2.5 1.9-3 4.5-1.5 7.6 1.5 3.2 4.1 4.5 7.8 3.8.7-.2 1.7-.4 2.8-.8 1.2-.4 2.1-.7 3-1.1l6.5-3 23.3-9.8 13.6-5.6c1.8-.8 3.6-1.5 5.5-1.9 1.9-.5 3.9-.8 5.9-1 9.4-1 17 4.9 22.9 17.9 6.6 14.3 3.7 25.3-8.7 33.1-.8.5-1.9 1.1-3.3 1.9-1.4.8-2.6 1.5-3.6 1.9-2.5 1.1-5.7 2.7-9.5 4.6-3.9 1.9-6.1 3-6.8 3.3-.8.4-4.6 2-11.4 4.9-6.8 2.9-12.1 5.2-15.7 6.9-1.5.7-3.1 1.4-4.7 2-1.6.6-3.2 1.2-4.8 1.7-3.5 1.6-6.8 2.5-10 2.8-3.2.3-6.2 0-9-.8-2.3-.7-4.7-2.2-7-4.5s-4.4-5.4-6.1-9.2l-2.9-5.6 24.9-11.4c2 4.3 4.4 6.6 7.2 6.8 1 0 2.3-.2 4-.6 1.6-.4 3.7-1.2 6.1-2.3l7.2-3 18.2-8.4 6.6-3c5-2.3 6.6-5.6 4.6-9.9-1.7-3.6-4.3-4.8-8-3.8l-5.2 2-5.2 2-15.2 6.3-7.5 2.9-12.8 5.1c-1.9.9-3.7 1.6-5.3 2.3-1.6.6-3.9 1.3-6.7 2-7.5 2.1-13.5.6-17.8-4.6-2.5-2.8-4.5-6.1-6.3-9.9-3.2-6.9-4.8-12.2-5-15.9-.6-6.2 1.3-11.2 5.5-15.1zm-92.8 69.7l69.8 61-19.6 20.3-67.7-59.1 17.5-22.2zM192 434.1l-84.8-29.8 31.2-88.7 19.8 6.9-22.2 63 16.2 5.7 20.9-59.4 19.8 7-20.9 59.3 29 10.2-9 25.8zm208.7 340.4c-109.8-39.7-189-143.5-192.4-266.1h192.4v266.1zm132 15.5c-10.7 1.2-21.6 1.8-32.7 1.8-11.1 0-22-.6-32.7-1.9V508.4h65.5V790zm0-537.6v236.9h-65.5V252.4c-23.4 3.1-45.8 9.6-66.6 18.8v218.1H208.4C214 333 342.4 208.1 500 208.1c157.6 0 286 125 291.6 281.2H599.3v-218c-20.8-9.3-43.2-15.7-66.6-18.9zm66.6 522.1V508.4h192.4c-3.4 122.6-82.6 226.4-192.4 266.1zm282.2-357.3c-1.9 1.2-3.8 2.3-5.8 3.3s-4.1 1.9-6.3 2.7c-7 2.6-12.5 3.6-16.7 3-4.2-.6-8.6-4-13.3-10.3.6 7.8-.1 13.1-2.3 15.8-2.2 2.8-7 5.5-14.3 8.2l-10.3 3.8L803 418l7.7-3.1c5.3-2 8.5-3.9 9.7-5.7 1.3-2.1 1-5.7-.9-11l-15.1-40.8-20.9 7.7-9.5-25.7 84.3-31.1 27.5 74.4c1 2.8 1.7 4.7 2 5.8.3 1.1.7 2.7 1.3 4.8 2.1 8.2 1.2 14.6-2.6 19.2-1.4 1.9-3.1 3.4-5 4.7z"></path><g><path class="prefix__st1" d="M192.9 338.7l-19.7-7-20.9 59.5-16.3-5.7 22.1-62.9-19.7-7-31.2 88.7 84.8 29.8 9-25.8-29-10.2zM277.9 279.5l-69.7-60.9-17.6 22.1 67.7 59.2zM300.2 179.8c1.8 3.8 3.9 7.1 6.3 9.9 4.3 5.1 10.3 6.7 17.8 4.6 2.9-.7 5.1-1.4 6.7-2 1.6-.6 3.4-1.4 5.3-2.3l12.8-5.1 7.5-2.9 15.2-6.3 5.2-2 5.2-2c3.7-1 6.4.2 8 3.8 2 4.3.4 7.5-4.6 9.9l-6.6 3-18.2 8.4-7.2 3c-2.4 1.1-4.4 1.9-6.1 2.3-1.6.4-3 .7-4 .6-2.8-.2-5.2-2.5-7.2-6.8l-24.9 11.4 2.9 5.6c1.8 3.8 3.8 6.9 6.1 9.2 2.3 2.3 4.7 3.8 7 4.5 2.8.8 5.8 1.1 9 .8 3.2-.3 6.5-1.2 10-2.8 1.6-.5 3.2-1.1 4.8-1.7 1.6-.6 3.1-1.3 4.7-2 3.7-1.7 8.9-4 15.7-6.9 6.8-2.9 10.6-4.6 11.4-4.9.7-.3 3-1.4 6.8-3.3 3.9-1.9 7.1-3.4 9.5-4.6 1-.4 2.1-1.1 3.6-1.9 1.4-.8 2.5-1.5 3.3-1.9 12.4-7.8 15.3-18.8 8.7-33.1-5.9-12.9-13.6-18.9-22.9-17.9-2 .2-4 .6-5.9 1-1.9.5-3.7 1.1-5.5 1.9l-13.6 5.6-23.3 9.8-6.5 3c-.8.4-1.8.7-3 1.1-1.2.4-2.1.6-2.8.8-3.8.7-6.4-.6-7.8-3.8-1.4-3.2-.9-5.7 1.5-7.6 1.3-1.2 2.8-2.2 4.6-3l6.4-3.2 14.5-6.7 6.9-2.8c1.8-.8 3.7-1.5 5.6-2.1 1-.3 1.6-.5 1.8-.5 2.7-.2 4.9.8 6.7 3.3l1.8 2.8 24.9-11.4-2.5-5.5c-2-4.4-4.5-7.8-7.5-10-2.9-2.2-6.2-3.4-9.8-3.5-3.1-.1-6.8.4-10.9 1.4-4.2 1-8.8 2.7-13.9 5.1-2.4 1.1-6.3 2.8-11.5 5-5.3 2.2-9.3 4-12.2 5.3-15.4 7.1-25.1 12.5-29.3 16.4-4.1 3.9-6.1 8.9-5.8 15 .5 3.8 2.1 9.1 5.3 16zM520.2 156.4l11.5 1.3 37 37.5 39.6 4.6-51.1-51 55.3-39-38.8-4.4-38.8 29.3-12.1-1.4 3.9-33.4-27.2-3.1-10.3 89.3 27.2 3.1zM750.6 272l-55.5-46.3 10.3-12.4 51.9 43.1 12.5-14.9-51.9-43.2 7.8-9.4 55 45.7 13.4-16.1-76-63.2-57.5 69 76.6 63.8zM889.2 393.4c-.5-2.1-.9-3.7-1.3-4.8-.3-1.1-1-3-2-5.8l-27.5-74.4-84.3 31.1 9.5 25.7 20.9-7.7 15.1 40.8c1.9 5.2 2.2 8.9.9 11-1.2 1.9-4.4 3.8-9.7 5.7l-7.7 3.1 9.5 25.7 10.3-3.8c7.3-2.7 12-5.4 14.3-8.2 2.2-2.7 3-8 2.3-15.8 4.7 6.2 9.1 9.7 13.3 10.3 4.2.6 9.7-.4 16.7-3 2.2-.8 4.3-1.7 6.3-2.7 2-1 3.9-2.1 5.8-3.3 1.9-1.3 3.5-2.8 5-4.6 3.8-4.8 4.7-11.2 2.6-19.3zm-26.5 0c-1 2.4-3.2 4.2-6.6 5.5-5 1.8-8.5 1.7-10.6-.5-.6-.6-1.2-1.3-1.7-2.1s-.9-1.8-1.3-2.8c-.4-1-.9-2.4-1.6-4.2-.7-1.8-1.2-3.1-1.4-3.9l-13.3-35.9 19.9-7.3 13 35.3 2.6 7.6c1.4 3.7 1.8 6.5 1 8.3z"></path><path class="prefix__st1" d="M500 21.6c-40.5 0-79.9 5.1-117.4 14.5-207.5 52.4-361 240.2-361 463.9 0 213.4 139.8 394.2 332.8 455.8 45.9 14.7 94.8 22.6 145.6 22.6 264.2 0 478.4-214.2 478.4-478.4S764.2 21.6 500 21.6zm89.8 893.6V276.9c-15.2-5.7-31.1-9.9-47.5-12.7v658.4c-14 1.4-28.2 2.1-42.5 2.1-14.2 0-28.2-.7-42.1-2.1V264.3c-16.4 2.7-32.3 7-47.5 12.7v638.4C218.6 874.2 75 703.9 75 500 75 265.4 265.2 75.2 499.8 75.2c234.6 0 424.8 190.2 424.8 424.8-.1 203.7-143.5 373.9-334.8 415.2z"></path><path class="prefix__st1" d="M599.3 774.5c109.8-39.7 189-143.5 192.4-266.1H599.3v266.1zM400.7 774.5V508.4H208.3c3.4 122.6 82.6 226.4 192.4 266.1zM599.3 489.4h192.3C786 333.1 657.6 208.2 500 208.2c-157.6 0-286 125-291.6 281.2h192.3V271.3c20.8-9.3 43.2-15.7 66.6-18.8v236.9h65.5v-237c23.4 3.1 45.8 9.6 66.6 18.8v218.2zM467.3 790c10.7 1.2 21.7 1.9 32.7 1.9 11.1 0 22-.6 32.7-1.8V508.4h-65.5V790z"></path></g></svg>